<?xml version="1.0" encoding="UTF-8" standalone="no"?>
<svg
   xmlns:osb="http://www.openswatchbook.org/uri/2009/osb"
   xmlns:dc="http://purl.org/dc/elements/1.1/"
   xmlns:cc="http://creativecommons.org/ns#"
   xmlns:rdf="http://www.w3.org/1999/02/22-rdf-syntax-ns#"
   xmlns:svg="http://www.w3.org/2000/svg"
   xmlns="http://www.w3.org/2000/svg"
   xmlns:sodipodi="http://sodipodi.sourceforge.net/DTD/sodipodi-0.dtd"
   xmlns:inkscape="http://www.inkscape.org/namespaces/inkscape"
   width="256"
   height="256"
   viewBox="0 0 67.733333 67.733335"
   version="1.1"
   id="svg8"
   inkscape:version="1.0.2-2 (e86c870879, 2021-01-15)"
   sodipodi:docname="redarm.svg"
   inkscape:export-filename="E:\work\driving robot\folders\webpage\redarmindia.gitlab.io\public\favicon-310.png"
   inkscape:export-xdpi="116.25"
   inkscape:export-ydpi="116.25">
  <defs
     id="defs2">
    <linearGradient
       id="linearGradient5130-8"
       osb:paint="gradient">
      <stop
         style="stop-color:#140000;stop-opacity:1;"
         offset="0"
         id="stop5141" />
      <stop
         style="stop-color:#ff5349;stop-opacity:0;"
         offset="1"
         id="stop5143" />
    </linearGradient>
    <linearGradient
       id="linearGradient5130"
       osb:paint="gradient">
      <stop
         style="stop-color:#ff5349;stop-opacity:1;"
         offset="0"
         id="stop5136" />
      <stop
         style="stop-color:#ff5349;stop-opacity:0;"
         offset="1"
         id="stop5138" />
    </linearGradient>
    <linearGradient
       id="linearGradient5130-8-3"
       osb:paint="gradient">
      <stop
         style="stop-color:#140078;stop-opacity:1;"
         offset="0"
         id="stop5126" />
      <stop
         style="stop-color:#ff5349;stop-opacity:0;"
         offset="1"
         id="stop5128" />
    </linearGradient>
    <inkscape:perspective
       sodipodi:type="inkscape:persp3d"
       inkscape:vp_x="0 : 8.9605559 : 1"
       inkscape:vp_y="0 : 264.58334 : 0"
       inkscape:vp_z="17.921111 : 8.9605559 : 1"
       inkscape:persp3d-origin="8.9605556 : 5.9737039 : 1"
       id="perspective1109" />
    <inkscape:path-effect
       effect="spiro"
       id="path-effect1103"
       is_visible="true"
       lpeversion="1" />
    <inkscape:path-effect
       effect="powerstroke"
       id="path-effect1085"
       is_visible="true"
       lpeversion="1"
       offset_points="1,0.5"
       sort_points="true"
       interpolator_type="CentripetalCatmullRom"
       interpolator_beta="0.75"
       start_linecap_type="round"
       linejoin_type="spiro"
       miter_limit="4"
       scale_width="1"
       end_linecap_type="round" />
    <inkscape:path-effect
       effect="simplify"
       id="path-effect1083"
       is_visible="true"
       lpeversion="1"
       steps="1"
       threshold="0.0040133779"
       smooth_angles="0"
       helper_size="0"
       simplify_individual_paths="false"
       simplify_just_coalesce="false"
       step="1" />
    <inkscape:path-effect
       effect="powerstroke"
       id="path-effect1078"
       is_visible="true"
       lpeversion="1"
       offset_points="1.0166179,0.19057619 | 3.4786548,0.22732281 | 4.1960732,0.20332502 | 5.7094558,0.57266599"
       sort_points="true"
       interpolator_type="CentripetalCatmullRom"
       interpolator_beta="0.75"
       start_linecap_type="round"
       linejoin_type="spiro"
       miter_limit="4"
       scale_width="1"
       end_linecap_type="round" />
    <inkscape:path-effect
       effect="simplify"
       id="path-effect1076"
       is_visible="true"
       lpeversion="1"
       steps="1"
       threshold="0.0040133779"
       smooth_angles="0"
       helper_size="0"
       simplify_individual_paths="false"
       simplify_just_coalesce="false"
       step="1" />
    <inkscape:path-effect
       effect="spiro"
       id="path-effect1073"
       is_visible="true"
       lpeversion="1" />
    <inkscape:path-effect
       effect="simplify"
       id="path-effect1071"
       is_visible="true"
       lpeversion="1"
       steps="1"
       threshold="0.00108696"
       smooth_angles="360"
       helper_size="0"
       simplify_individual_paths="false"
       simplify_just_coalesce="false" />
    <inkscape:path-effect
       effect="spiro"
       id="path-effect1067"
       is_visible="true"
       lpeversion="1" />
    <inkscape:path-effect
       effect="simplify"
       id="path-effect1065"
       is_visible="true"
       lpeversion="1"
       steps="1"
       threshold="0.5"
       smooth_angles="360"
       helper_size="0"
       simplify_individual_paths="false"
       simplify_just_coalesce="false" />
    <inkscape:path-effect
       effect="spiro"
       id="path-effect1061"
       is_visible="true"
       lpeversion="1" />
    <inkscape:path-effect
       effect="simplify"
       id="path-effect1059"
       is_visible="true"
       lpeversion="1"
       steps="1"
       threshold="0.00108696"
       smooth_angles="360"
       helper_size="0"
       simplify_individual_paths="false"
       simplify_just_coalesce="false" />
    <inkscape:path-effect
       effect="spiro"
       id="path-effect1055"
       is_visible="true"
       lpeversion="1" />
    <inkscape:path-effect
       effect="simplify"
       id="path-effect1053"
       is_visible="true"
       lpeversion="1"
       steps="1"
       threshold="0.00108696"
       smooth_angles="360"
       helper_size="0"
       simplify_individual_paths="false"
       simplify_just_coalesce="false" />
    <inkscape:path-effect
       effect="spiro"
       id="path-effect1049"
       is_visible="true"
       lpeversion="1" />
    <inkscape:path-effect
       effect="simplify"
       id="path-effect1047"
       is_visible="true"
       lpeversion="1"
       steps="1"
       threshold="0.00108696"
       smooth_angles="360"
       helper_size="0"
       simplify_individual_paths="false"
       simplify_just_coalesce="false" />
    <inkscape:path-effect
       effect="simplify"
       id="path-effect1043"
       is_visible="true"
       lpeversion="1"
       steps="1"
       threshold="0.000408163"
       smooth_angles="360"
       helper_size="0"
       simplify_individual_paths="false"
       simplify_just_coalesce="false" />
    <inkscape:path-effect
       effect="simplify"
       id="path-effect1039"
       is_visible="true"
       lpeversion="1"
       steps="1"
       threshold="0.000408163"
       smooth_angles="360"
       helper_size="0"
       simplify_individual_paths="false"
       simplify_just_coalesce="false" />
    <inkscape:path-effect
       effect="simplify"
       id="path-effect1035"
       is_visible="true"
       lpeversion="1"
       steps="1"
       threshold="0.000408163"
       smooth_angles="360"
       helper_size="0"
       simplify_individual_paths="false"
       simplify_just_coalesce="false" />
  </defs>
  <sodipodi:namedview
     id="base"
     pagecolor="#ffffff"
     bordercolor="#666666"
     borderopacity="1.0"
     inkscape:pageopacity="0.0"
     inkscape:pageshadow="2"
     inkscape:zoom="1.928881"
     inkscape:cx="194.21626"
     inkscape:cy="127.55565"
     inkscape:document-units="px"
     inkscape:current-layer="layer1"
     inkscape:document-rotation="0"
     showgrid="false"
     units="px"
     inkscape:pagecheckerboard="true"
     inkscape:window-width="1920"
     inkscape:window-height="1017"
     inkscape:window-x="1358"
     inkscape:window-y="-8"
     inkscape:window-maximized="1" />
  <metadata
     id="metadata5">
    <rdf:RDF>
      <cc:Work
         rdf:about="">
        <dc:format>image/svg+xml</dc:format>
        <dc:type
           rdf:resource="http://purl.org/dc/dcmitype/StillImage" />
        <dc:title></dc:title>
      </cc:Work>
    </rdf:RDF>
  </metadata>
  <g
     inkscape:label="color circles"
     inkscape:groupmode="layer"
     id="layer1"
     style="display:inline">
    <path
       sodipodi:type="star"
       style="display:inline;fill:#ffffff;fill-opacity:1;stroke:#ff5349;stroke-width:1.60785;stroke-linecap:square;stroke-miterlimit:3.7;stroke-dasharray:none;stroke-opacity:1;paint-order:stroke markers fill"
       id="path881-2"
       sodipodi:sides="3"
       sodipodi:cx="33.866741"
       sodipodi:cy="28.62739"
       sodipodi:r1="37.498093"
       sodipodi:r2="18.749044"
       sodipodi:arg1="1.5707963"
       sodipodi:arg2="2.6179939"
       inkscape:flatsided="true"
       inkscape:rounded="0"
       inkscape:randomized="0"
       inkscape:transform-center-y="9.3745234"
       inkscape:transform-center-x="-1.0106349e-06"
       d="M 33.866742,66.125483 1.3924398,9.8783445 66.341042,9.8783427 Z" />
    <path
       sodipodi:type="star"
       style="fill:none;stroke:#ff5349;stroke-width:1.60785;stroke-linecap:square;stroke-miterlimit:3.7;stroke-dasharray:none;stroke-opacity:1;paint-order:stroke markers fill"
       id="path881"
       sodipodi:sides="3"
       sodipodi:cx="33.866741"
       sodipodi:cy="28.62739"
       sodipodi:r1="37.498093"
       sodipodi:r2="18.749044"
       sodipodi:arg1="1.5707963"
       sodipodi:arg2="2.6179939"
       inkscape:flatsided="true"
       inkscape:rounded="0"
       inkscape:randomized="0"
       d="M 33.866742,66.125483 1.3924398,9.8783445 66.341042,9.8783427 Z"
       inkscape:transform-center-y="9.3745234"
       inkscape:transform-center-x="-1.0106349e-06" />
    <g
       id="g927"
       transform="matrix(0.89843749,0,0,0.89843542,3.4395834,-1.0459405)">
      <path
         id="path901"
         style="fill:#4169e1;fill-opacity:1;stroke:none;stroke-width:0;stroke-linecap:square;stroke-miterlimit:3.7;stroke-dasharray:none;stroke-opacity:1;paint-order:stroke markers fill"
         d="m 157.78906,4.4003906 a 23.999999,23.999999 0 0 0 -0.41211,0.00781 23.999999,23.999999 0 0 0 -0.41211,0.013672 23.999999,23.999999 0 0 0 -0.41211,0.021484 23.999999,23.999999 0 0 0 -0.41015,0.029297 23.999999,23.999999 0 0 0 -0.41016,0.035156 23.999999,23.999999 0 0 0 -0.41015,0.042969 23.999999,23.999999 0 0 0 -0.40821,0.048828 23.999999,23.999999 0 0 0 -0.4082,0.056641 23.999999,23.999999 0 0 0 -0.4082,0.0625 23.999999,23.999999 0 0 0 -0.4043,0.070312 23.999999,23.999999 0 0 0 -0.40625,0.078125 23.999999,23.999999 0 0 0 -0.40234,0.083984 23.999999,23.999999 0 0 0 -0.40235,0.091797 23.999999,23.999999 0 0 0 -0.40039,0.097656 23.999999,23.999999 0 0 0 -0.39648,0.1054688 23.999999,23.999999 0 0 0 -0.39649,0.1113281 23.999999,23.999999 0 0 0 -0.39453,0.1191406 23.999999,23.999999 0 0 0 -0.39258,0.125 23.999999,23.999999 0 0 0 -0.39062,0.1328125 23.999999,23.999999 0 0 0 -0.38867,0.1386719 23.999999,23.999999 0 0 0 -0.38477,0.1445312 23.999999,23.999999 0 0 0 -0.38281,0.1523438 23.999999,23.999999 0 0 0 -0.38086,0.1582031 23.999999,23.999999 0 0 0 -0.37695,0.1660156 23.999999,23.999999 0 0 0 -0.375,0.1699219 23.999999,23.999999 0 0 0 -0.3711,0.1777344 23.999999,23.999999 0 0 0 -0.36914,0.1855469 23.999999,23.999999 0 0 0 -0.36523,0.1894531 23.999999,23.999999 0 0 0 -0.36133,0.1972656 23.999999,23.999999 0 0 0 -0.35938,0.203125 23.999999,23.999999 0 0 0 -0.35351,0.2089844 23.999999,23.999999 0 0 0 -0.35156,0.2148437 23.999999,23.999999 0 0 0 -0.34766,0.2207032 23.999999,23.999999 0 0 0 -0.34375,0.2285156 23.999999,23.999999 0 0 0 -0.33984,0.2324218 23.999999,23.999999 0 0 0 -0.33594,0.2382813 23.999999,23.999999 0 0 0 -0.33203,0.2441406 23.999999,23.999999 0 0 0 -0.32618,0.25 23.999999,23.999999 0 0 0 -0.32421,0.2558594 23.999999,23.999999 0 0 0 -0.31836,0.2617187 23.999999,23.999999 0 0 0 -0.31446,0.2675782 23.999999,23.999999 0 0 0 -0.30859,0.271485 23.999999,23.999999 0 0 0 -0.30469,0.277343 23.999999,23.999999 0 0 0 -0.30078,0.28125 23.999999,23.999999 0 0 0 -0.29492,0.289063 23.999999,23.999999 0 0 0 -0.28906,0.291016 23.999999,23.999999 0 0 0 -0.28516,0.298828 23.999999,23.999999 0 0 0 -0.2793,0.302734 23.999999,23.999999 0 0 0 -0.27539,0.306641 23.999999,23.999999 0 0 0 -0.26953,0.310547 23.999999,23.999999 0 0 0 -0.26367,0.316406 23.999999,23.999999 0 0 0 -0.25781,0.322265 23.999999,23.999999 0 0 0 -0.25196,0.324219 23.999999,23.999999 0 0 0 -0.24804,0.330078 23.999999,23.999999 0 0 0 -0.24219,0.333985 23.999999,23.999999 0 0 0 -0.23438,0.33789 23.999999,23.999999 0 0 0 -0.23046,0.341797 23.999999,23.999999 0 0 0 -0.22461,0.345703 23.999999,23.999999 0 0 0 -0.2168,0.34961 23.999999,23.999999 0 0 0 -0.21289,0.351562 23.999999,23.999999 0 0 0 -0.20703,0.357422 23.999999,23.999999 0 0 0 -0.19922,0.361328 23.999999,23.999999 0 0 0 -0.19336,0.363282 23.999999,23.999999 0 0 0 -0.1875,0.367187 23.999999,23.999999 0 0 0 -0.17969,0.369141 23.999999,23.999999 0 0 0 -0.17578,0.373046 23.999999,23.999999 0 0 0 -0.16797,0.376954 23.999999,23.999999 0 0 0 -0.16211,0.378906 23.999999,23.999999 0 0 0 -0.15429,0.380859 23.999999,23.999999 0 0 0 -0.14844,0.384766 23.999999,23.999999 0 0 0 -0.14258,0.386719 23.999999,23.999999 0 0 0 -0.13477,0.388672 23.999999,23.999999 0 0 0 -0.1289,0.390624 23.999999,23.999999 0 0 0 -0.12305,0.394532 23.999999,23.999999 0 0 0 -0.11328,0.394531 23.999999,23.999999 0 0 0 -0.10937,0.398437 23.999999,23.999999 0 0 0 -0.10157,0.398438 23.999999,23.999999 0 0 0 -0.0937,0.402344 23.999999,23.999999 0 0 0 -0.0879,0.402344 23.999999,23.999999 0 0 0 -0.082,0.402343 23.999999,23.999999 0 0 0 -0.0723,0.40625 23.999999,23.999999 0 0 0 -0.0684,0.40625 23.999999,23.999999 0 0 0 -0.0586,0.408203 23.999999,23.999999 0 0 0 -0.0527,0.408204 23.999999,23.999999 0 0 0 -0.0469,0.410156 23.999999,23.999999 0 0 0 -0.0391,0.408203 23.999999,23.999999 0 0 0 -0.0312,0.412109 23.999999,23.999999 0 0 0 -0.0254,0.410156 23.999999,23.999999 0 0 0 -0.0176,0.41211 23.999999,23.999999 0 0 0 -0.01,0.412109 23.999999,23.999999 0 0 0 -0.004,0.41211 v 0.210937 198.988285 0.21094 a 23.999999,23.999999 0 0 0 0.008,0.41211 23.999999,23.999999 0 0 0 0.0137,0.41211 23.999999,23.999999 0 0 0 0.0215,0.41211 23.999999,23.999999 0 0 0 0.0293,0.41015 23.999999,23.999999 0 0 0 0.0351,0.41016 23.999999,23.999999 0 0 0 0.043,0.41015 23.999999,23.999999 0 0 0 0.0488,0.40821 23.999999,23.999999 0 0 0 0.0566,0.4082 23.999999,23.999999 0 0 0 0.0625,0.4082 23.999999,23.999999 0 0 0 0.0723,0.40625 23.999999,23.999999 0 0 0 0.0762,0.4043 23.999999,23.999999 0 0 0 0.084,0.40234 23.999999,23.999999 0 0 0 0.0918,0.40235 23.999999,23.999999 0 0 0 0.0976,0.40039 23.999999,23.999999 0 0 0 0.10547,0.39844 23.999999,23.999999 0 0 0 0.11133,0.39648 23.999999,23.999999 0 0 0 0.11914,0.39453 23.999999,23.999999 0 0 0 0.125,0.39258 23.999999,23.999999 0 0 0 0.13281,0.38867 23.999999,23.999999 0 0 0 0.13868,0.38867 23.999999,23.999999 0 0 0 0.14453,0.38477 23.999999,23.999999 0 0 0 0.15234,0.38281 23.999999,23.999999 0 0 0 0.1582,0.38086 23.999999,23.999999 0 0 0 0.16602,0.37695 23.999999,23.999999 0 0 0 0.17187,0.375 23.999999,23.999999 0 0 0 0.17774,0.3711 23.999999,23.999999 0 0 0 0.18359,0.36914 23.999999,23.999999 0 0 0 0.19141,0.36523 23.999999,23.999999 0 0 0 0.19531,0.36133 23.999999,23.999999 0 0 0 0.20313,0.35938 23.999999,23.999999 0 0 0 0.20898,0.35546 23.999999,23.999999 0 0 0 0.21484,0.34961 23.999999,23.999999 0 0 0 0.22266,0.34766 23.999999,23.999999 0 0 0 0.22656,0.34375 23.999999,23.999999 0 0 0 0.23243,0.33984 23.999999,23.999999 0 0 0 0.23828,0.33594 23.999999,23.999999 0 0 0 0.24609,0.33203 23.999999,23.999999 0 0 0 0.25,0.32813 23.999999,23.999999 0 0 0 0.25586,0.32226 23.999999,23.999999 0 0 0 0.25977,0.31836 23.999999,23.999999 0 0 0 0.26757,0.31446 23.999999,23.999999 0 0 0 0.27149,0.30859 23.999999,23.999999 0 0 0 0.27734,0.30469 23.999999,23.999999 0 0 0 0.28321,0.30078 23.999999,23.999999 0 0 0 0.2871,0.29492 23.999999,23.999999 0 0 0 0.29297,0.28906 23.999999,23.999999 0 0 0 0.29688,0.28516 23.999999,23.999999 0 0 0 0.30273,0.2793 23.999999,23.999999 0 0 0 0.30664,0.27539 23.999999,23.999999 0 0 0 0.3125,0.26953 23.999999,23.999999 0 0 0 0.31641,0.26367 23.999999,23.999999 0 0 0 0.32031,0.25781 23.999999,23.999999 0 0 0 0.32422,0.25391 23.999999,23.999999 0 0 0 0.33008,0.24609 23.999999,23.999999 0 0 0 0.33398,0.24219 23.999999,23.999999 0 0 0 0.33789,0.23633 23.999999,23.999999 0 0 0 0.3418,0.22851 23.999999,23.999999 0 0 0 0.3457,0.22461 23.999999,23.999999 0 0 0 0.34961,0.21875 23.999999,23.999999 0 0 0 0.35352,0.21094 23.999999,23.999999 0 0 0 0.35547,0.20703 23.999999,23.999999 0 0 0 0.36133,0.19922 23.999999,23.999999 0 0 0 0.36328,0.19336 23.999999,23.999999 0 0 0 0.36718,0.1875 23.999999,23.999999 0 0 0 0.36914,0.18164 23.999999,23.999999 0 0 0 0.37305,0.17383 23.999999,23.999999 0 0 0 0.37695,0.16797 23.999999,23.999999 0 0 0 0.37891,0.16211 23.999999,23.999999 0 0 0 0.38086,0.15429 23.999999,23.999999 0 0 0 0.38477,0.15039 23.999999,23.999999 0 0 0 0.38672,0.14063 23.999999,23.999999 0 0 0 0.38867,0.13476 23.999999,23.999999 0 0 0 0.39257,0.12891 23.999999,23.999999 0 0 0 0.39258,0.12305 23.999999,23.999999 0 0 0 0.39649,0.11523 23.999999,23.999999 0 0 0 0.39648,0.10742 23.999999,23.999999 0 0 0 0.39844,0.10157 23.999999,23.999999 0 0 0 0.40234,0.0957 23.999999,23.999999 0 0 0 0.40235,0.0859 23.999999,23.999999 0 0 0 0.40429,0.082 23.999999,23.999999 0 0 0 0.4043,0.0742 23.999999,23.999999 0 0 0 0.40625,0.0664 23.999999,23.999999 0 0 0 0.4082,0.0606 23.999999,23.999999 0 0 0 0.40821,0.0527 23.999999,23.999999 0 0 0 0.41015,0.0449 23.999999,23.999999 0 0 0 0.41016,0.0391 23.999999,23.999999 0 0 0 0.41016,0.0312 23.999999,23.999999 0 0 0 0.4121,0.0254 23.999999,23.999999 0 0 0 0.41016,0.0176 23.999999,23.999999 0 0 0 0.41211,0.01 23.999999,23.999999 0 0 0 0.41211,0.004 23.999999,23.999999 0 0 0 0.21094,0 23.999999,23.999999 0 0 0 0.41211,-0.008 23.999999,23.999999 0 0 0 0.41211,-0.0137 23.999999,23.999999 0 0 0 0.41211,-0.0215 23.999999,23.999999 0 0 0 0.41015,-0.0293 23.999999,23.999999 0 0 0 0.41016,-0.0352 23.999999,23.999999 0 0 0 0.41015,-0.043 23.999999,23.999999 0 0 0 0.40821,-0.0488 23.999999,23.999999 0 0 0 0.4082,-0.0566 23.999999,23.999999 0 0 0 0.4082,-0.0625 23.999999,23.999999 0 0 0 0.4043,-0.0703 23.999999,23.999999 0 0 0 0.40625,-0.0781 23.999999,23.999999 0 0 0 0.40234,-0.084 23.999999,23.999999 0 0 0 0.40235,-0.0918 23.999999,23.999999 0 0 0 0.33398,-0.082 128.00001,128.00001 0 0 0 2.07813,-0.62305 A 128.00001,128.00001 0 0 0 256,128 128.00001,128.00001 0 0 0 165.93164,5.75 a 128.00001,128.00001 0 0 0 -2.03906,-0.6132812 23.999999,23.999999 0 0 0 -0.17969,-0.046875 23.999999,23.999999 0 0 0 -0.40234,-0.095703 23.999999,23.999999 0 0 0 -0.40235,-0.085937 23.999999,23.999999 0 0 0 -0.40429,-0.082031 23.999999,23.999999 0 0 0 -0.4043,-0.074219 23.999999,23.999999 0 0 0 -0.40625,-0.066406 23.999999,23.999999 0 0 0 -0.4082,-0.060547 23.999999,23.999999 0 0 0 -0.40821,-0.052734 23.999999,23.999999 0 0 0 -0.41015,-0.044922 23.999999,23.999999 0 0 0 -0.41016,-0.039063 23.999999,23.999999 0 0 0 -0.41016,-0.03125 23.999999,23.999999 0 0 0 -0.4121,-0.025391 23.999999,23.999999 0 0 0 -0.41016,-0.017578 23.999999,23.999999 0 0 0 -0.41211,-0.00977 23.999999,23.999999 0 0 0 -0.41211,-0.00391 23.999999,23.999999 0 0 0 -0.21094,0 z"
         transform="scale(0.26458334)" />
      <path
         id="path901-9"
         style="display:inline;fill:#ff5349;fill-opacity:1;stroke:none;stroke-width:0;stroke-linecap:square;stroke-miterlimit:3.7;stroke-dasharray:none;stroke-opacity:1;paint-order:stroke markers fill"
         d="m 25.985067,66.570103 a 6.3500217,6.3500217 0 0 0 0.109038,-0.002 6.3500217,6.3500217 0 0 0 0.109038,-0.004 6.3500217,6.3500217 0 0 0 0.109037,-0.006 6.3500217,6.3500217 0 0 0 0.108519,-0.008 6.3500217,6.3500217 0 0 0 0.108523,-0.009 6.3500217,6.3500217 0 0 0 0.108519,-0.0114 6.3500217,6.3500217 0 0 0 0.108006,-0.0129 6.3500217,6.3500217 0 0 0 0.108003,-0.015 6.3500217,6.3500217 0 0 0 0.108003,-0.0165 6.3500217,6.3500217 0 0 0 0.106972,-0.0186 6.3500217,6.3500217 0 0 0 0.107487,-0.0207 6.3500217,6.3500217 0 0 0 0.106453,-0.0222 6.3500217,6.3500217 0 0 0 0.106456,-0.0243 6.3500217,6.3500217 0 0 0 0.105936,-0.0258 6.3500217,6.3500217 0 0 0 0.104903,-0.0279 6.3500217,6.3500217 0 0 0 0.104905,-0.0295 6.3500217,6.3500217 0 0 0 0.104386,-0.0315 6.3500217,6.3500217 0 0 0 0.103871,-0.0331 6.3500217,6.3500217 0 0 0 0.103352,-0.0351 6.3500217,6.3500217 0 0 0 0.102835,-0.0367 6.3500217,6.3500217 0 0 0 0.101805,-0.0382 6.3500217,6.3500217 0 0 0 0.101285,-0.0403 6.3500217,6.3500217 0 0 0 0.100769,-0.0419 6.3500217,6.3500217 0 0 0 0.09974,-0.0439 6.3500217,6.3500217 0 0 0 0.09922,-0.045 6.3500217,6.3500217 0 0 0 0.09819,-0.047 6.3500217,6.3500217 0 0 0 0.09767,-0.0491 6.3500217,6.3500217 0 0 0 0.09663,-0.0501 6.3500217,6.3500217 0 0 0 0.0956,-0.0522 6.3500217,6.3500217 0 0 0 0.09508,-0.0537 6.3500217,6.3500217 0 0 0 0.09353,-0.0553 6.3500217,6.3500217 0 0 0 0.09302,-0.0568 6.3500217,6.3500217 0 0 0 0.09198,-0.0584 6.3500217,6.3500217 0 0 0 0.09095,-0.0605 6.3500217,6.3500217 0 0 0 0.08992,-0.0615 6.3500217,6.3500217 0 0 0 0.08888,-0.063 6.3500217,6.3500217 0 0 0 0.08785,-0.0646 6.3500217,6.3500217 0 0 0 0.0863,-0.0661 6.3500217,6.3500217 0 0 0 0.08578,-0.0677 6.3500217,6.3500217 0 0 0 0.08423,-0.0692 6.3500217,6.3500217 0 0 0 0.0832,-0.0708 6.3500217,6.3500217 0 0 0 0.08165,-0.0718 6.3500217,6.3500217 0 0 0 0.08062,-0.0734 6.3500217,6.3500217 0 0 0 0.07958,-0.0744 6.3500217,6.3500217 0 0 0 0.07803,-0.0765 6.3500217,6.3500217 0 0 0 0.07648,-0.077 6.3500217,6.3500217 0 0 0 0.07545,-0.0791 6.3500217,6.3500217 0 0 0 0.0739,-0.0801 6.3500217,6.3500217 0 0 0 0.07286,-0.0811 6.3500217,6.3500217 0 0 0 0.07131,-0.0822 6.3500217,6.3500217 0 0 0 0.06976,-0.0837 6.3500217,6.3500217 0 0 0 0.06821,-0.0853 6.3500217,6.3500217 0 0 0 0.06667,-0.0858 6.3500217,6.3500217 0 0 0 0.06563,-0.0873 6.3500217,6.3500217 0 0 0 0.06408,-0.0884 6.3500217,6.3500217 0 0 0 0.06201,-0.0894 6.3500217,6.3500217 0 0 0 0.06097,-0.0904 6.3500217,6.3500217 0 0 0 0.05943,-0.0915 6.3500217,6.3500217 0 0 0 0.05736,-0.0925 6.3500217,6.3500217 0 0 0 0.05633,-0.093 6.3500217,6.3500217 0 0 0 0.05478,-0.0946 6.3500217,6.3500217 0 0 0 0.05271,-0.0956 6.3500217,6.3500217 0 0 0 0.05116,-0.0961 6.3500217,6.3500217 0 0 0 0.04961,-0.0971 6.3500217,6.3500217 0 0 0 0.04754,-0.0977 6.3500217,6.3500217 0 0 0 0.04651,-0.0987 6.3500217,6.3500217 0 0 0 0.04444,-0.0997 6.3500217,6.3500217 0 0 0 0.04289,-0.10025 6.3500217,6.3500217 0 0 0 0.04082,-0.100771 6.3500217,6.3500217 0 0 0 0.03927,-0.1018 6.3500217,6.3500217 0 0 0 0.03772,-0.10232 6.3500217,6.3500217 0 0 0 0.03566,-0.102841 6.3500217,6.3500217 0 0 0 0.03411,-0.10335 6.3500217,6.3500217 0 0 0 0.03256,-0.10439 6.3500217,6.3500217 0 0 0 0.02997,-0.104381 6.3500217,6.3500217 0 0 0 0.02894,-0.10543 6.3500217,6.3500217 0 0 0 0.02687,-0.105421 6.3500217,6.3500217 0 0 0 0.02479,-0.10645 6.3500217,6.3500217 0 0 0 0.02326,-0.10645 6.3500217,6.3500217 0 0 0 0.0217,-0.106461 6.3500217,6.3500217 0 0 0 0.01913,-0.10748 6.3500217,6.3500217 0 0 0 0.0181,-0.10749 6.3500217,6.3500217 0 0 0 0.01551,-0.108001 6.3500217,6.3500217 0 0 0 0.01394,-0.10801 6.3500217,6.3500217 0 0 0 0.01241,-0.10852 6.3500217,6.3500217 0 0 0 0.01035,-0.108001 6.3500217,6.3500217 0 0 0 0.0083,-0.10904 6.3500217,6.3500217 0 0 0 0.0067,-0.108521 6.3500217,6.3500217 0 0 0 0.0047,-0.10904 6.3500217,6.3500217 0 0 0 0.0026,-0.10903 6.3500217,6.3500217 0 0 0 0.0011,-0.109041 v -0.0558 -52.6491612 -0.0558 a 6.3500217,6.3500217 0 0 0 -0.0021,-0.1090304 6.3500217,6.3500217 0 0 0 -0.0036,-0.1090404 6.3500217,6.3500217 0 0 0 -0.0057,-0.1090404 6.3500217,6.3500217 0 0 0 -0.0078,-0.1085203 6.3500217,6.3500217 0 0 0 -0.0093,-0.1085204 A 6.3500217,6.3500217 0 0 0 32.239551,6.8062673 6.3500217,6.3500217 0 0 0 32.226641,6.698267 6.3500217,6.3500217 0 0 0 32.211661,6.5902566 6.3500217,6.3500217 0 0 0 32.195121,6.4822562 6.3500217,6.3500217 0 0 0 32.175991,6.3747658 6.3500217,6.3500217 0 0 0 32.155831,6.2677955 6.3500217,6.3500217 0 0 0 32.133611,6.1613451 6.3500217,6.3500217 0 0 0 32.109321,6.0548948 6.3500217,6.3500217 0 0 0 32.083501,5.9489544 6.3500217,6.3500217 0 0 0 32.055591,5.843534 6.3500217,6.3500217 0 0 0 32.026131,5.7386337 6.3500217,6.3500217 0 0 0 31.994611,5.6342433 6.3500217,6.3500217 0 0 0 31.96154,5.530373 6.3500217,6.3500217 0 0 0 31.9264,5.4275426 6.3500217,6.3500217 0 0 0 31.88971,5.3247023 6.3500217,6.3500217 0 0 0 31.85147,5.2229019 6.3500217,6.3500217 0 0 0 31.81116,5.1216116 6.3500217,6.3500217 0 0 0 31.7693,5.0208412 a 6.3500217,6.3500217 0 0 0 -0.04393,-0.0997 6.3500217,6.3500217 0 0 0 -0.04547,-0.0992 6.3500217,6.3500217 0 0 0 -0.04703,-0.0982 6.3500217,6.3500217 0 0 0 -0.04858,-0.0977 6.3500217,6.3500217 0 0 0 -0.05064,-0.0966 6.3500217,6.3500217 0 0 0 -0.05168,-0.0956 6.3500217,6.3500217 0 0 0 -0.05374,-0.0951 6.3500217,6.3500217 0 0 0 -0.05529,-0.094 6.3500217,6.3500217 0 0 0 -0.05684,-0.0925 6.3500217,6.3500217 0 0 0 -0.05891,-0.092 6.3500217,6.3500217 0 0 0 -0.05994,-0.0909 6.3500217,6.3500217 0 0 0 -0.0615,-0.0899 6.3500217,6.3500217 0 0 0 -0.06305,-0.0889 6.3500217,6.3500217 0 0 0 -0.06511,-0.0878 6.3500217,6.3500217 0 0 0 -0.06615,-0.0868 6.3500217,6.3500217 0 0 0 -0.0677,-0.0853 6.3500217,6.3500217 0 0 0 -0.06873,-0.0842 6.3500217,6.3500217 0 0 0 -0.0708,-0.0832 6.3500217,6.3500217 0 0 0 -0.07183,-0.0816 6.3500217,6.3500217 0 0 0 -0.07338,-0.0806 6.3500217,6.3500217 0 0 0 -0.07493,-0.0796 6.3500217,6.3500217 0 0 0 -0.07596,-0.078 6.3500217,6.3500217 0 0 0 -0.07751,-0.0765 6.3500217,6.3500217 0 0 0 -0.07855,-0.0754 6.3500217,6.3500217 0 0 0 -0.0801,-0.0739 6.3500217,6.3500217 0 0 0 -0.08113,-0.0729 6.3500217,6.3500217 0 0 0 -0.08268,-0.0713 6.3500217,6.3500217 0 0 0 -0.08372,-0.0698 6.3500217,6.3500217 0 0 0 -0.08475,-0.0682 6.3500217,6.3500217 0 0 0 -0.08578,-0.0672 6.3500217,6.3500217 0 0 0 -0.08733,-0.0651 6.3500217,6.3500217 0 0 0 -0.08837,-0.0641 6.3500217,6.3500217 0 0 0 -0.0894,-0.0625 6.3500217,6.3500217 0 0 0 -0.09043,-0.0605 6.3500217,6.3500217 0 0 0 -0.09147,-0.0594 6.3500217,6.3500217 0 0 0 -0.0925,-0.0579 6.3500217,6.3500217 0 0 0 -0.09354,-0.0558 6.3500217,6.3500217 0 0 0 -0.09405,-0.0548 6.3500217,6.3500217 0 0 0 -0.0956,-0.0527 6.3500217,6.3500217 0 0 0 -0.09612,-0.0512 6.3500217,6.3500217 0 0 0 -0.09715,-0.0496 6.3500217,6.3500217 0 0 0 -0.09767,-0.0481 6.3500217,6.3500217 0 0 0 -0.0987,-0.046 6.3500217,6.3500217 0 0 0 -0.09974,-0.0444 6.3500217,6.3500217 0 0 0 -0.100254,-0.0429 6.3500217,6.3500217 0 0 0 -0.100769,-0.0408 6.3500217,6.3500217 0 0 0 -0.101805,-0.0398 6.3500217,6.3500217 0 0 0 -0.10232,-0.0372 6.3500217,6.3500217 0 0 0 -0.102835,-0.0357 6.3500217,6.3500217 0 0 0 -0.103869,-0.0341 6.3500217,6.3500217 0 0 0 -0.10387,-0.0326 6.3500217,6.3500217 0 0 0 -0.104904,-0.0305 6.3500217,6.3500217 0 0 0 -0.104903,-0.0284 6.3500217,6.3500217 0 0 0 -0.105421,-0.0269 6.3500217,6.3500217 0 0 0 -0.106452,-0.0253 6.3500217,6.3500217 0 0 0 -0.106457,-0.0227 6.3500217,6.3500217 0 0 0 -0.106968,-0.0217 6.3500217,6.3500217 0 0 0 -0.106971,-0.0196 6.3500217,6.3500217 0 0 0 -0.107488,-0.0176 6.3500217,6.3500217 0 0 0 -0.108003,-0.016 6.3500217,6.3500217 0 0 0 -0.108006,-0.0139 6.3500217,6.3500217 0 0 0 -0.108519,-0.0119 6.3500217,6.3500217 0 0 0 -0.108522,-0.0103 6.3500217,6.3500217 0 0 0 -0.108522,-0.008 6.3500217,6.3500217 0 0 0 -0.109035,-0.007 6.3500217,6.3500217 0 0 0 -0.108522,-0.005 6.3500217,6.3500217 0 0 0 -0.109038,-0.003 6.3500217,6.3500217 0 0 0 -0.109037,-0.001 6.3500217,6.3500217 0 0 0 -0.05581,0 6.3500217,6.3500217 0 0 0 -0.109038,0.002 6.3500217,6.3500217 0 0 0 -0.109038,0.004 6.3500217,6.3500217 0 0 0 -0.109037,0.006 6.3500217,6.3500217 0 0 0 -0.10852,0.008 6.3500217,6.3500217 0 0 0 -0.108521,0.009 6.3500217,6.3500217 0 0 0 -0.10852,0.0114 6.3500217,6.3500217 0 0 0 -0.108006,0.0129 6.3500217,6.3500217 0 0 0 -0.108003,0.015 6.3500217,6.3500217 0 0 0 -0.108004,0.0165 6.3500217,6.3500217 0 0 0 -0.106971,0.0186 6.3500217,6.3500217 0 0 0 -0.107487,0.0207 6.3500217,6.3500217 0 0 0 -0.106453,0.0222 6.3500217,6.3500217 0 0 0 -0.106455,0.0243 6.3500217,6.3500217 0 0 0 -0.08837,0.0217 33.866786,33.866786 0 0 0 -0.54984,0.1648505 A 33.866786,33.866786 0 0 0 0,33.867333 a 33.866786,33.866786 0 0 0 23.830669,32.345429 33.866786,33.866786 0 0 0 0.539502,0.16226 6.3500217,6.3500217 0 0 0 0.04754,0.0124 6.3500217,6.3500217 0 0 0 0.106453,0.0253 6.3500217,6.3500217 0 0 0 0.106455,0.0227 6.3500217,6.3500217 0 0 0 0.106969,0.0217 6.3500217,6.3500217 0 0 0 0.106971,0.0196 6.3500217,6.3500217 0 0 0 0.107487,0.0176 6.3500217,6.3500217 0 0 0 0.108004,0.016 6.3500217,6.3500217 0 0 0 0.108006,0.014 6.3500217,6.3500217 0 0 0 0.10852,0.0119 6.3500217,6.3500217 0 0 0 0.108521,0.0103 6.3500217,6.3500217 0 0 0 0.108522,0.008 6.3500217,6.3500217 0 0 0 0.109035,0.007 6.3500217,6.3500217 0 0 0 0.108522,0.005 6.3500217,6.3500217 0 0 0 0.109037,0.003 6.3500217,6.3500217 0 0 0 0.109039,10e-4 6.3500217,6.3500217 0 0 0 0.05581,0 z" />
    </g>
  </g>
</svg>
